<svg xmlns="http://www.w3.org/2000/svg" xmlns:xlink="http://www.w3.org/1999/xlink" width="1920" zoomAndPan="magnify" viewBox="0 0 1440 809.999993" height="1080" preserveAspectRatio="xMidYMid meet" version="1.0"><defs><clipPath id="0a10fe2ca5"><path d="M 518.441406 255 L 861 255 L 861 601.5 L 518.441406 601.5 Z M 518.441406 255 " clip-rule="nonzero"/></clipPath><clipPath id="e31d3d72f3"><path d="M 753 208.5 L 921.191406 208.5 L 921.191406 377 L 753 377 Z M 753 208.5 " clip-rule="nonzero"/></clipPath></defs><g clip-path="url(#0a10fe2ca5)"><path fill="#8c52ff" d="M 819.046875 543.390625 C 818.140625 544.664062 815.664062 545.675781 812.410156 545.800781 C 812.089844 545.992188 811.707031 545.992188 810.90625 545.992188 L 638.882812 545.992188 C 625.980469 545.992188 612.890625 545.800781 599.976562 545.675781 C 594.058594 545.675781 588.007812 545.46875 582.113281 545.46875 C 576.578125 545.46875 571.117188 546.570312 565.386719 545.992188 C 565.183594 545.992188 565.066406 545.992188 564.671875 545.800781 C 564.25 545.800781 563.675781 545.675781 563.101562 545.277344 C 559.53125 542.992188 566.929688 537.449219 568.246094 535.753906 C 572.199219 530.785156 615.683594 469.785156 616.296875 469.082031 C 622.152344 460.347656 630.167969 455.390625 638.5 455.390625 C 650.824219 455.390625 657.0625 468.492188 666.785156 473.972656 C 679.496094 481.417969 687.839844 471.496094 694.117188 461.445312 C 698.367188 454.777344 702.703125 447.949219 706.890625 441.089844 C 709.363281 437.132812 711.96875 432.941406 714.457031 428.753906 C 717.503906 423.992188 720.503906 419.253906 723.554688 414.351562 L 729.640625 404.441406 C 730.226562 403.660156 730.609375 403.113281 730.992188 402.347656 C 733.277344 399.089844 735.878906 396.996094 737.972656 396.996094 C 739.9375 396.996094 742.21875 399.089844 744.289062 402.539062 C 765.558594 440.578125 786.992188 479.132812 807.84375 516.546875 L 817.949219 534.847656 C 818.855469 536.136719 819.261719 537.65625 819.65625 538.804688 C 819.847656 540.324219 820.039062 542.1875 819.046875 543.390625 Z M 620.445312 306.96875 C 645.351562 306.777344 665.496094 326.878906 665.496094 352.007812 C 665.496094 376.894531 645.746094 396.867188 620.839844 396.996094 C 595.957031 396.996094 575.875 376.703125 575.875 352.007812 C 575.875 327.261719 595.765625 307.160156 620.445312 306.96875 Z M 837.648438 394.351562 C 781.355469 394.351562 735.6875 348.6875 735.6875 292.320312 C 735.6875 279.308594 738.136719 266.871094 742.539062 255.441406 L 563.292969 255.441406 C 559.300781 255.441406 555.34375 255.824219 551.542969 256.414062 C 532.722656 259.441406 518.710938 275.222656 518.710938 293.867188 C 518.710938 382.375 518.519531 470.78125 518.710938 559.09375 C 518.710938 581.351562 538.054688 600.902344 560.296875 601.09375 L 822.324219 601.09375 C 830.082031 601.09375 837.101562 598.617188 843.1875 594.085938 C 854.773438 585.183594 859.914062 572.988281 859.914062 558.585938 C 860.105469 514.683594 860.105469 470.589844 860.105469 426.46875 L 860.105469 391.875 C 852.871094 393.484375 845.367188 394.351562 837.648438 394.351562 " fill-opacity="1" fill-rule="nonzero"/></g><g clip-path="url(#e31d3d72f3)"><path fill="#8c52ff" d="M 884.476562 284.214844 L 874.511719 293.675781 C 873.757812 294.402344 872.570312 294.378906 871.832031 293.636719 L 850.753906 272.210938 C 849.539062 270.996094 847.460938 271.851562 847.460938 273.550781 L 847.460938 347.703125 C 847.460938 348.75 846.617188 349.621094 845.558594 349.621094 L 831.472656 349.621094 C 830.425781 349.621094 829.558594 348.75 829.558594 347.703125 L 829.558594 271.214844 C 829.558594 269.515625 827.492188 268.648438 826.292969 269.835938 L 801.808594 294.109375 C 801.003906 294.902344 799.6875 294.851562 798.960938 293.945312 L 790.640625 283.574219 C 790.042969 282.808594 790.09375 281.710938 790.796875 281.019531 L 836.246094 235.585938 C 836.984375 234.832031 838.210938 234.832031 838.949219 235.585938 L 884.527344 281.46875 C 885.28125 282.234375 885.265625 283.484375 884.476562 284.214844 Z M 837.648438 208.578125 C 791.445312 208.578125 753.972656 246.070312 753.972656 292.320312 C 753.972656 338.574219 791.445312 376.054688 837.648438 376.054688 C 883.863281 376.054688 921.324219 338.574219 921.324219 292.320312 C 921.324219 246.070312 883.863281 208.578125 837.648438 208.578125 " fill-opacity="1" fill-rule="nonzero"/></g></svg>